<svg id="visual" viewBox="0 0 900 900" width="900" height="900" xmlns="http://www.w3.org/2000/svg" xmlns:xlink="http://www.w3.org/1999/xlink" version="1.1"><path d="M0 505L150 505L150 352L300 352L300 235L450 235L450 343L600 343L600 478L750 478L750 541L900 541L900 154L900 0L900 0L750 0L750 0L600 0L600 0L450 0L450 0L300 0L300 0L150 0L150 0L0 0Z" fill="#fa7268"></path><path d="M0 577L150 577L150 406L300 406L300 280L450 280L450 514L600 514L600 640L750 640L750 631L900 631L900 397L900 152L900 539L750 539L750 476L600 476L600 341L450 341L450 233L300 233L300 350L150 350L150 503L0 503Z" fill="#e45765"></path><path d="M0 757L150 757L150 721L300 721L300 532L450 532L450 748L600 748L600 775L750 775L750 775L900 775L900 577L900 395L900 629L750 629L750 638L600 638L600 512L450 512L450 278L300 278L300 404L150 404L150 575L0 575Z" fill="#cb3d62"></path><path d="M0 901L150 901L150 901L300 901L300 901L450 901L450 901L600 901L600 901L750 901L750 901L900 901L900 901L900 575L900 773L750 773L750 773L600 773L600 746L450 746L450 530L300 530L300 719L150 719L150 755L0 755Z" fill="#b0235f"></path></svg>